<svg width="100" height="36" xmlns="http://www.w3.org/2000/svg">
    <path d="M25.617 11.16c5.028 0 8.405 3.772 8.405 9.385 0 5.654-3.457 9.455-8.602 9.455-5.044 0-8.431-3.775-8.431-9.39 0-5.652 3.468-9.45 8.628-9.45zM94.273 6.1c.169 0 .306.136.306.305v5.552h3.8v1.786h-3.8v10.863c0 .883.145 2.111 1.26 2.375.946.225 1.84-.399 2.517-1.266a.289.289 0 0 1 .286-.104.29.29 0 0 1 .226.352C98.378 27.951 96.477 30 94.204 30c-2.376 0-3.752-1.2-3.752-4.556V13.743h-2.38a.418.418 0 0 1-.11-.82c3.312-.95 5.417-3.62 6.013-6.581a.303.303 0 0 1 .298-.243zM44.29 11.16c5.028 0 8.404 3.772 8.404 9.385 0 5.654-3.457 9.455-8.602 9.455-5.043 0-8.43-3.775-8.43-9.39 0-5.652 3.467-9.45 8.628-9.45zm34.909.099c3.275 0 6.428.728 6.428 6.79v5.745c.003 1.732.047 2.838.7 3.05.585.19 1.203-.052 1.71-.419a.326.326 0 0 1 .413.021c.086.078.117.226.068.351-.785 2.07-2.927 3.185-4.276 3.185-1.269 0-2.537-.632-2.613-2.854l-.03-.007C80.31 29.493 77.895 30 76.375 30c-2.972 0-4.495-2.267-4.495-4.44 0-2.282 1-3.862 3.431-5.283 3.291-1.923 6.19-1.788 6.19-4.931 0-1.826-1.014-2.813-2.451-2.813-1.664 0-2.589.758-2.926 2.971-.134.883-.765 1.43-1.57 1.436-1.331.01-1.904-1.374-1.351-2.484 1.087-2.18 3.31-3.197 5.998-3.197zM8.438 11.16c4.472-.103 6.523 3.37 7.096 4.751l-4.415 1.414c-.419-1.455-1.207-3.75-3.427-3.75-2.98 0-3.996 4.217-3.09 8.07.649 2.753 2.495 4.784 5.031 4.967 1.854.133 3.59-.658 4.609-3.063l1.614.405c-.54 2.258-2.249 6.045-7.636 6.045C3.44 30 0 26.427 0 20.678c0-5.604 3.502-9.403 8.438-9.518zM59.136 4v15.37c.003 0 .165-.18.438-.483l.35-.39c1.613-1.794 5.19-5.795 5.87-6.54h4.703l-6.702 6.881 7.506 10.756h-4.516l-5.426-8.385-2.213 2.299-.01 6.086h-4.064V4.464L59.136 4zM29.522 19.904c-.614-3.666-2.335-6.781-5.26-6.293-1.92.32-3.677 2.279-2.77 7.702.595 3.564 2.48 6.69 5.228 6.23 2.862-.479 3.392-4.106 2.802-7.64zm18.673 0c-.613-3.666-2.334-6.781-5.259-6.293-1.921.32-3.678 2.279-2.77 7.702.595 3.564 2.48 6.69 5.228 6.23 2.862-.479 3.392-4.106 2.801-7.64zM81.5 18.74c-1.375 1.991-4.596 2.007-5.483 4.712-.507 1.546-.03 3.583 1.893 3.95 1.025.197 3.59-.309 3.59-3.511z" fill="#FFFFFF" fill-rule="nonzero"/>
</svg>
